<svg width="691" height="193" viewBox="0 0 691 193" fill="none" xmlns="http://www.w3.org/2000/svg">
<g clip-path="url(#clip0_498_107)">
<path d="M127.902 55.7828C143.224 64.511 143.224 86.6566 127.902 95.3848L35.4659 148.041C20.3305 156.663 1.54883 145.699 1.54883 128.24V22.9273C1.54883 5.46906 20.3305 -5.49565 35.4659 3.12637L127.902 55.7828Z" fill="url(#paint0_linear_498_107)"/>
<path d="M127.902 55.7828C143.224 64.511 143.224 86.6566 127.902 95.3848L35.4659 148.041C20.3305 156.663 1.54883 145.699 1.54883 128.24V22.9273C1.54883 5.46906 20.3305 -5.49565 35.4659 3.12637L127.902 55.7828Z" fill="#191414" fill-opacity="0.2"/>
<g filter="url(#filter0_d_498_107)">
<path d="M151.915 96.9478C167.237 105.676 167.237 127.822 151.915 136.55L59.4796 189.206C44.3441 197.828 25.5625 186.864 25.5625 169.405V64.0925C25.5625 46.6339 44.3441 35.6693 59.4796 44.2915L151.915 96.9478Z" fill="url(#paint1_linear_498_107)"/>
</g>
</g>
<path d="M187.839 47.6928H225.789C234.389 47.6928 242.139 48.9928 249.039 51.5928C255.939 54.1928 261.789 57.8428 266.589 62.5428C271.389 67.2428 275.039 72.8928 277.539 79.4928C280.139 86.0928 281.439 93.3928 281.439 101.393C281.439 109.393 280.139 116.693 277.539 123.293C275.039 129.893 271.389 135.543 266.589 140.243C261.789 144.943 255.939 148.593 249.039 151.193C242.139 153.793 234.389 155.093 225.789 155.093H187.839V47.6928ZM224.589 132.893C230.389 132.893 235.389 132.143 239.589 130.643C243.789 129.043 247.239 126.843 249.939 124.043C252.739 121.243 254.789 117.943 256.089 114.143C257.389 110.243 258.039 105.993 258.039 101.393C258.039 96.7928 257.389 92.5928 256.089 88.7928C254.789 84.8928 252.739 81.5428 249.939 78.7428C247.239 75.9428 243.789 73.7928 239.589 72.2928C235.389 70.6928 230.389 69.8928 224.589 69.8928H211.239V132.893H224.589ZM292.519 81.5928H313.519V90.8928H315.019C317.019 87.6928 319.869 84.9928 323.569 82.7928C327.269 80.5928 331.369 79.4928 335.869 79.4928C338.569 79.4928 340.919 79.8428 342.919 80.5428C344.919 81.1428 346.569 81.8428 347.869 82.6428L342.019 102.443C340.719 101.743 339.319 101.193 337.819 100.793C336.419 100.393 334.569 100.193 332.269 100.193C326.669 100.193 322.369 102.143 319.369 106.043C316.469 109.943 315.019 115.043 315.019 121.343V155.093H292.519V81.5928ZM397.996 148.493H396.496C394.096 151.093 391.346 153.243 388.246 154.943C385.246 156.643 381.346 157.493 376.546 157.493C372.846 157.493 369.346 156.893 366.046 155.693C362.846 154.493 359.996 152.793 357.496 150.593C355.096 148.393 353.196 145.743 351.796 142.643C350.396 139.543 349.696 136.093 349.696 132.293C349.696 128.593 350.446 125.243 351.946 122.243C353.446 119.143 355.496 116.493 358.096 114.293C360.696 112.093 363.746 110.393 367.246 109.193C370.846 107.993 374.746 107.393 378.946 107.393C383.446 107.393 387.146 107.693 390.046 108.293C393.046 108.893 395.696 109.593 397.996 110.393V108.443C397.996 105.243 396.646 102.543 393.946 100.343C391.346 98.0428 387.796 96.8928 383.296 96.8928C376.796 96.8928 371.196 99.5428 366.496 104.843L351.196 94.0428C355.396 89.0428 360.246 85.3428 365.746 82.9428C371.346 80.4428 377.496 79.1928 384.196 79.1928C396.196 79.1928 405.246 81.8928 411.346 87.2928C417.446 92.5928 420.496 100.693 420.496 111.593V155.093H397.996V148.493ZM397.996 126.143C395.696 125.243 393.396 124.543 391.096 124.043C388.896 123.543 386.596 123.293 384.196 123.293C380.196 123.293 377.196 124.143 375.196 125.843C373.196 127.443 372.196 129.543 372.196 132.143C372.196 134.743 373.146 136.843 375.046 138.443C376.946 139.943 379.446 140.693 382.546 140.693C385.046 140.693 387.246 140.293 389.146 139.493C391.146 138.593 392.796 137.443 394.096 136.043C395.396 134.643 396.346 133.093 396.946 131.393C397.646 129.593 397.996 127.843 397.996 126.143ZM436.074 81.5928H457.074V90.8928H458.574C460.974 87.1928 464.024 84.3428 467.724 82.3428C471.524 80.2428 475.974 79.1928 481.074 79.1928C486.674 79.1928 491.324 80.5428 495.024 83.2428C498.724 85.8428 501.324 88.8928 502.824 92.3928C505.024 88.8928 508.174 85.8428 512.274 83.2428C516.374 80.5428 521.524 79.1928 527.724 79.1928C532.124 79.1928 535.974 79.9428 539.274 81.4428C542.574 82.8428 545.274 84.8428 547.374 87.4428C549.574 90.0428 551.224 93.1428 552.324 96.7428C553.424 100.343 553.974 104.293 553.974 108.593V155.093H531.474V112.943C531.474 109.143 530.574 106.093 528.774 103.793C527.074 101.393 524.524 100.193 521.124 100.193C516.224 100.193 512.524 102.193 510.024 106.193C507.524 110.093 506.274 115.343 506.274 121.943V155.093H483.774V112.943C483.774 109.143 482.824 106.093 480.924 103.793C479.124 101.393 476.274 100.193 472.374 100.193C467.774 100.193 464.324 102.193 462.024 106.193C459.724 110.093 458.574 115.343 458.574 121.943V155.093H436.074V81.5928ZM582.557 73.4928C580.557 73.4928 578.707 73.1428 577.007 72.4428C575.307 71.6428 573.807 70.6428 572.507 69.4428C571.307 68.1428 570.307 66.6428 569.507 64.9428C568.807 63.2428 568.457 61.3928 568.457 59.3928C568.457 57.4928 568.807 55.6928 569.507 53.9928C570.307 52.1928 571.307 50.6928 572.507 49.4928C573.807 48.1928 575.307 47.1928 577.007 46.4928C578.707 45.6928 580.557 45.2928 582.557 45.2928C584.457 45.2928 586.257 45.6928 587.957 46.4928C589.757 47.1928 591.257 48.1928 592.457 49.4928C593.757 50.6928 594.757 52.1928 595.457 53.9928C596.257 55.6928 596.657 57.4928 596.657 59.3928C596.657 61.3928 596.257 63.2428 595.457 64.9428C594.757 66.6428 593.757 68.1428 592.457 69.4428C591.257 70.6428 589.757 71.6428 587.957 72.4428C586.257 73.1428 584.457 73.4928 582.557 73.4928ZM571.307 155.093V81.5928H593.807V155.093H571.307ZM646.523 79.1928C652.223 79.1928 657.473 80.1928 662.273 82.1928C667.173 84.0928 671.373 86.7928 674.873 90.2928C678.473 93.6928 681.223 97.7928 683.123 102.593C685.123 107.393 686.123 112.643 686.123 118.343C686.123 124.043 685.123 129.293 683.123 134.093C681.223 138.893 678.473 143.043 674.873 146.543C671.373 149.943 667.173 152.643 662.273 154.643C657.473 156.543 652.223 157.493 646.523 157.493C640.823 157.493 635.523 156.543 630.623 154.643C625.823 152.643 621.623 149.943 618.023 146.543C614.523 143.043 611.773 138.893 609.773 134.093C607.873 129.293 606.923 124.043 606.923 118.343C606.923 112.643 607.873 107.393 609.773 102.593C611.773 97.7928 614.523 93.6928 618.023 90.2928C621.623 86.7928 625.823 84.0928 630.623 82.1928C635.523 80.1928 640.823 79.1928 646.523 79.1928ZM646.523 136.493C648.823 136.493 650.973 136.093 652.973 135.293C655.073 134.393 656.923 133.193 658.523 131.693C660.123 130.093 661.373 128.193 662.273 125.993C663.173 123.693 663.623 121.143 663.623 118.343C663.623 115.543 663.173 113.043 662.273 110.843C661.373 108.643 660.123 106.743 658.523 105.143C656.923 103.543 655.073 102.343 652.973 101.543C650.973 100.643 648.823 100.193 646.523 100.193C644.223 100.193 642.023 100.643 639.923 101.543C637.923 102.343 636.123 103.543 634.523 105.143C632.923 106.743 631.673 108.643 630.773 110.843C629.873 113.043 629.423 115.543 629.423 118.343C629.423 121.143 629.873 123.693 630.773 125.993C631.673 128.193 632.923 130.093 634.523 131.693C636.123 133.193 637.923 134.393 639.923 135.293C642.023 136.093 644.223 136.493 646.523 136.493Z" fill="white"/>
<defs>
<filter id="filter0_d_498_107" x="-115.037" y="-80.3129" width="389.044" height="402.124" filterUnits="userSpaceOnUse" color-interpolation-filters="sRGB">
<feFlood flood-opacity="0" result="BackgroundImageFix"/>
<feColorMatrix in="SourceAlpha" type="matrix" values="0 0 0 0 0 0 0 0 0 0 0 0 0 0 0 0 0 0 127 0" result="hardAlpha"/>
<feOffset dx="-15" dy="4"/>
<feGaussianBlur stdDeviation="62.8"/>
<feComposite in2="hardAlpha" operator="out"/>
<feColorMatrix type="matrix" values="0 0 0 0 0 0 0 0 0 0 0 0 0 0 0 0 0 0 0.3 0"/>
<feBlend mode="normal" in2="BackgroundImageFix" result="effect1_dropShadow_498_107"/>
<feBlend mode="normal" in="SourceGraphic" in2="effect1_dropShadow_498_107" result="shape"/>
</filter>
<linearGradient id="paint0_linear_498_107" x1="10.8344" y1="6.25513" x2="112.08" y2="166.172" gradientUnits="userSpaceOnUse">
<stop stop-color="#F74CD6"/>
<stop offset="1" stop-color="#9C47FC"/>
</linearGradient>
<linearGradient id="paint1_linear_498_107" x1="34.8481" y1="47.42" x2="136.094" y2="207.337" gradientUnits="userSpaceOnUse">
<stop stop-color="#F74CD6"/>
<stop offset="1" stop-color="#9C47FC"/>
</linearGradient>
<clipPath id="clip0_498_107">
<rect width="168.27" height="193" fill="white"/>
</clipPath>
</defs>
</svg>
