<svg width="89" height="104" viewBox="0 0 89 104" fill="none" xmlns="http://www.w3.org/2000/svg">
<g clip-path="url(#clip0_501_114)">
<path d="M68.9205 30.0588C77.1769 34.762 77.1769 46.6954 68.9205 51.3987L19.1105 79.7731C10.9547 84.4192 0.833984 78.5108 0.833984 69.1031V12.3543C0.833984 2.94671 10.9547 -2.96174 19.1105 1.68433L68.9205 30.0588Z" fill="url(#paint0_linear_501_114)"/>
<path d="M68.9205 30.0588C77.1769 34.762 77.1769 46.6954 68.9205 51.3987L19.1105 79.7731C10.9547 84.4192 0.833984 78.5108 0.833984 69.1031V12.3543C0.833984 2.94671 10.9547 -2.96174 19.1105 1.68433L68.9205 30.0588Z" fill="#191414" fill-opacity="0.2"/>
<g filter="url(#filter0_d_501_114)">
<path d="M81.8619 52.2414C90.1183 56.9446 90.1183 68.878 81.8619 73.5813L32.0519 101.956C23.8961 106.602 13.7754 100.693 13.7754 91.2857V34.5369C13.7754 25.1292 23.8961 19.2208 32.0519 23.867L81.8619 52.2414Z" fill="url(#paint1_linear_501_114)"/>
</g>
</g>
<defs>
<filter id="filter0_d_501_114" x="-126.825" y="-99.352" width="325.479" height="332.526" filterUnits="userSpaceOnUse" color-interpolation-filters="sRGB">
<feFlood flood-opacity="0" result="BackgroundImageFix"/>
<feColorMatrix in="SourceAlpha" type="matrix" values="0 0 0 0 0 0 0 0 0 0 0 0 0 0 0 0 0 0 127 0" result="hardAlpha"/>
<feOffset dx="-15" dy="4"/>
<feGaussianBlur stdDeviation="62.8"/>
<feComposite in2="hardAlpha" operator="out"/>
<feColorMatrix type="matrix" values="0 0 0 0 0 0 0 0 0 0 0 0 0 0 0 0 0 0 0.3 0"/>
<feBlend mode="normal" in2="BackgroundImageFix" result="effect1_dropShadow_501_114"/>
<feBlend mode="normal" in="SourceGraphic" in2="effect1_dropShadow_501_114" result="shape"/>
</filter>
<linearGradient id="paint0_linear_501_114" x1="5.83762" y1="3.37029" x2="60.3948" y2="89.5429" gradientUnits="userSpaceOnUse">
<stop stop-color="#F74CD6"/>
<stop offset="1" stop-color="#9C47FC"/>
</linearGradient>
<linearGradient id="paint1_linear_501_114" x1="18.779" y1="25.5528" x2="73.3362" y2="111.726" gradientUnits="userSpaceOnUse">
<stop stop-color="#F74CD6"/>
<stop offset="1" stop-color="#9C47FC"/>
</linearGradient>
<clipPath id="clip0_501_114">
<rect width="88.9119" height="104" fill="white"/>
</clipPath>
</defs>
</svg>
